# Blender v3.6.2 OBJ File: 'untitled.blend'
# www.blender.org
mtllib test.mtl
o Cube
v 4.898456 0.176041 -5.527902
v 4.898456 -0.176041 -5.527902
v 4.898456 0.176041 5.527902
v 4.898456 -0.176041 5.527902
v -4.898456 0.176041 -5.527902
v -4.898456 -0.176041 -5.527902
v -4.898456 0.176041 5.527902
v -4.898456 -0.176041 5.527902
vt -0.001206 0.003339
vt 1.000000 0.003339
vt 1.000000 1.000000
vt -0.001206 1.000000
vt 0.375000 0.750000
vt 0.625000 0.750000
vt 0.625000 1.000000
vt 0.375000 1.000000
vt 0.375000 0.000000
vt 0.625000 0.000000
vt 0.625000 0.250000
vt 0.375000 0.250000
vt 0.125000 0.500000
vt 0.375000 0.500000
vt 0.125000 0.750000
vt 0.625000 0.500000
vn 0.0000 1.0000 0.0000
vn 0.0000 0.0000 1.0000
vn -1.0000 0.0000 0.0000
vn 0.0000 -1.0000 0.0000
vn 1.0000 0.0000 0.0000
vn 0.0000 0.0000 -1.0000
usemtl Material
s off
f 1/1/1 5/2/1 7/3/1 3/4/1
f 4/5/2 3/6/2 7/7/2 8/8/2
f 8/9/3 7/10/3 5/11/3 6/12/3
f 6/13/4 2/14/4 4/5/4 8/15/4
f 2/14/5 1/16/5 3/6/5 4/5/5
f 6/12/6 5/11/6 1/16/6 2/14/6
o Куб
v 4.898457 -0.158347 5.554505
v 5.639850 -0.158347 5.554505
v 4.898457 5.151886 5.554505
v 5.639850 5.151886 5.554505
v 4.898456 -0.158347 -5.527902
v 5.639850 -0.158347 -5.527902
v 4.898456 5.151886 -5.527902
v 5.639850 5.151886 -5.527902
vt 0.375000 0.000000
vt 0.625000 0.000000
vt 0.625000 0.250000
vt 0.375000 0.250000
vt 0.625000 0.500000
vt 0.375000 0.500000
vt 0.625000 0.750000
vt 0.375000 0.750000
vt 0.625000 1.000000
vt 0.375000 1.000000
vt 0.125000 0.500000
vt 0.125000 0.750000
vt 0.875000 0.500000
vt 0.875000 0.750000
vn 0.0000 0.0000 1.0000
vn 0.0000 1.0000 0.0000
vn 0.0000 0.0000 -1.0000
vn 0.0000 -1.0000 0.0000
vn -1.0000 0.0000 0.0000
vn 1.0000 0.0000 -0.0000
usemtl Материал.002
s off
f 9/17/7 10/18/7 12/19/7 11/20/7
f 11/20/8 12/19/8 16/21/8 15/22/8
f 15/22/9 16/21/9 14/23/9 13/24/9
f 13/24/10 14/23/10 10/25/10 9/26/10
f 11/27/11 15/22/11 13/24/11 9/28/11
f 16/21/12 12/29/12 10/30/12 14/23/12
o Куб.001
v -5.592305 -0.158347 5.554505
v -4.850911 -0.158347 5.554505
v -5.592305 5.151886 5.554505
v -4.850911 5.151886 5.554505
v -5.592305 -0.158347 -5.527902
v -4.850912 -0.158347 -5.527902
v -5.592305 5.151886 -5.527902
v -4.850912 5.151886 -5.527902
vt 0.375000 0.000000
vt 0.625000 0.000000
vt 0.625000 0.250000
vt 0.375000 0.250000
vt 0.625000 0.500000
vt 0.375000 0.500000
vt 0.625000 0.750000
vt 0.375000 0.750000
vt 0.625000 1.000000
vt 0.375000 1.000000
vt 0.125000 0.500000
vt 0.125000 0.750000
vt 0.875000 0.500000
vt 0.875000 0.750000
vn 0.0000 0.0000 1.0000
vn 0.0000 1.0000 0.0000
vn 0.0000 0.0000 -1.0000
vn 0.0000 -1.0000 0.0000
vn -1.0000 0.0000 0.0000
vn 1.0000 0.0000 -0.0000
usemtl Материал
s off
f 17/31/13 18/32/13 20/33/13 19/34/13
f 19/34/14 20/33/14 24/35/14 23/36/14
f 23/36/15 24/35/15 22/37/15 21/38/15
f 21/38/16 22/37/16 18/39/16 17/40/16
f 19/41/17 23/36/17 21/38/17 17/42/17
f 24/35/18 20/43/18 18/44/18 22/37/18
o Куб.002
v 2.555520 0.176041 2.337932
v 2.555520 4.287063 2.337932
v 2.555520 0.176041 0.610433
v 2.555520 4.287063 0.610433
v 4.840483 0.176041 2.337932
v 4.840483 4.287063 2.337932
v 4.840483 0.176041 0.610433
v 4.840483 4.287063 0.610433
v 2.555520 1.409001 2.337932
v 2.555520 1.409001 0.610433
v 4.840483 1.409001 0.610433
v 4.840483 1.409001 2.337932
v 2.555520 0.176041 0.610433
v 2.555520 0.176041 2.337932
v 2.555520 1.409001 0.610433
v 2.555520 1.409001 2.337932
v 0.209387 0.176041 0.610433
v 0.209387 0.176041 2.337932
v 0.209387 1.409001 0.610433
v 2.555520 1.409001 0.610433
v 2.555520 0.176041 0.610433
v 0.209387 1.409001 0.610433
v 0.209387 0.176041 0.610433
v 2.555520 1.409001 -2.201302
v 2.555520 0.176041 -2.201302
v 0.209387 1.409001 -2.201302
v 0.209387 0.176041 -2.201302
v 2.555520 2.655061 2.337932
v 2.555520 2.655061 0.610433
v 0.209387 2.655061 2.337932
v 0.209387 2.655061 0.610433
vt 0.449979 0.000000
vt 0.625000 0.000000
vt 0.625000 0.250000
vt 0.449979 0.250000
vt 0.449979 0.500000
vt 0.625000 0.500000
vt 0.625000 0.750000
vt 0.449979 0.750000
vt 0.375000 0.250000
vt 0.375000 0.500000
vt 0.125000 0.500000
vt 0.375000 0.750000
vt 0.125000 0.750000
vt 0.875000 0.500000
vt 0.875000 0.750000
vt 0.375000 0.250000
vt 0.449979 0.250000
vt 0.449979 0.000000
vt 0.449979 0.250000
vt 0.449979 0.000000
vt 0.375000 1.000000
vt 0.449979 1.000000
vt 0.449979 1.000000
vt 0.375000 1.000000
vt 0.125000 0.750000
vt 0.125000 0.500000
vt 0.449979 1.000000
vt 0.449979 1.000000
vt 0.375000 1.000000
vt 0.125000 0.500000
vt 0.125000 0.500000
vt 0.125000 0.500000
vt 0.625000 1.000000
vt 0.125000 0.750000
vt 0.449979 0.250000
vt 0.375000 0.250000
vt 0.375000 0.250000
vt 0.449979 0.250000
vt 0.449979 0.250000
vt 0.449979 0.250000
vt 0.375000 0.250000
vt 0.375000 0.250000
vt 0.375000 0.250000
vt 0.449979 0.250000
vt 0.125000 0.500000
vt 0.125000 0.500000
vt 0.449979 0.250000
vt 0.449979 0.000000
vt 0.375000 0.000000
vn -1.0000 0.0000 0.0000
vn 1.0000 0.0000 0.0000
vn 0.0000 0.0000 -1.0000
vn 0.0000 -1.0000 0.0000
vn 0.0000 1.0000 0.0000
vn 0.0000 0.0000 1.0000
usemtl Материал.001
s off
f 33/45/19 26/46/19 28/47/19 34/48/19
f 35/49/20 32/50/20 30/51/20 36/52/20
f 27/53/21 34/48/21 28/47/21 32/50/21 35/49/21 31/54/21
f 27/55/22 31/54/22 29/56/22 25/57/22
f 32/50/23 28/58/23 26/59/23 30/51/23
f 31/54/20 35/49/20 36/52/20 29/56/20
f 34/48/24 27/53/24 37/60/24 39/61/24
f 40/62/20 39/61/20 53/63/20 52/64/20
f 25/65/24 33/66/24 40/67/24 38/68/24
f 33/45/24 34/48/24 39/61/24 40/62/24
f 27/55/24 25/57/24 38/69/24 37/70/24
f 40/67/24 52/71/24 54/72/24 42/73/24 38/68/24
f 37/70/24 41/74/24 47/75/24 45/76/24
f 29/56/24 36/52/24 30/51/24 26/77/24 33/66/24 25/65/24
f 37/70/22 38/69/22 42/78/22 41/74/22
f 44/79/20 45/80/20 49/81/20 48/82/20
f 39/61/24 37/60/24 45/80/24 44/79/24
f 43/83/24 39/61/24 44/79/24 46/84/24
f 41/85/24 43/83/24 46/84/24 47/86/24
f 48/82/21 49/81/21 51/87/21 50/88/21
f 45/76/22 47/75/22 51/89/22 49/90/22
f 47/86/19 46/84/19 50/88/19 51/87/19
f 46/84/23 44/79/23 48/82/23 50/88/23
f 52/64/23 53/63/23 55/91/23 54/92/23
f 39/61/21 43/83/21 55/91/21 53/63/21
f 42/93/19 54/92/19 55/91/19 43/83/19 41/85/19
