# Blender v3.6.2 OBJ File: 'cube.blend'
# www.blender.org
mtllib test_cube.mtl
o Cube
v 2.045162 2.553217 -2.064439
v 2.045162 -0.038308 -2.064439
v 2.045162 2.553217 -0.064439
v 2.045162 -0.038308 -0.064439
v 0.045162 2.553217 -2.064439
v 0.045162 -0.038308 -2.064439
v 0.045162 2.553217 -0.064439
v 0.045162 -0.038308 -0.064439
vt 0.625000 0.500000
vt 0.875000 0.500000
vt 0.875000 0.750000
vt 0.625000 0.750000
vt 0.391801 -0.000301
vt 0.393621 0.328074
vt 0.222179 0.329893
vt 0.220360 0.001518
vt 1.003392 -0.004315
vt 0.996194 1.004378
vt 0.469566 0.997181
vt 0.476764 -0.011513
vt 0.125000 0.500000
vt 0.375000 0.500000
vt 0.375000 0.750000
vt 0.125000 0.750000
vt 0.001055 0.001435
vt 1.001707 0.001435
vt 1.001707 1.002087
vt 0.001055 1.002087
vt 0.502112 0.009277
vt 0.505400 0.965915
vt 0.005950 0.969202
vt 0.002662 0.012565
vn 0.0000 1.0000 0.0000
vn 0.0000 0.0000 1.0000
vn -1.0000 0.0000 0.0000
vn 0.0000 -1.0000 0.0000
vn 1.0000 0.0000 0.0000
vn 0.0000 0.0000 -1.0000
usemtl Material
s off
f 1/1/1 5/2/1 7/3/1 3/4/1
f 4/5/2 3/6/2 7/7/2 8/8/2
f 8/9/3 7/10/3 5/11/3 6/12/3
f 6/13/4 2/14/4 4/15/4 8/16/4
f 2/17/5 1/18/5 3/19/5 4/20/5
f 6/21/6 5/22/6 1/23/6 2/24/6
